<svg width="27" height="27" viewBox="0 0 27 27" fill="none" xmlns="http://www.w3.org/2000/svg">
<path d="M18.3508 25.48V21.0628C18.3969 20.5185 18.3176 19.9714 18.1182 19.4577C17.9187 18.9441 17.6036 18.4757 17.1938 18.0837C21.0585 17.6842 25.12 16.3259 25.12 10.0939C25.1197 8.5003 24.4587 6.96783 23.2738 5.81364C23.8349 4.41943 23.7952 2.87836 23.1631 1.51056C23.1631 1.51056 21.7108 1.11107 18.3508 3.19984C15.5299 2.49082 12.5563 2.49082 9.73538 3.19984C6.37538 1.11107 4.92307 1.51056 4.92307 1.51056C4.29092 2.87836 4.25125 4.41943 4.8123 5.81364C3.61861 6.97639 2.95695 8.52272 2.96615 10.1281C2.96615 16.3145 7.02769 17.6728 10.8923 18.1179C10.4874 18.506 10.1751 18.9688 9.97576 19.4761C9.77643 19.9835 9.69453 20.5241 9.73538 21.0628V25.48M9.73538 22.0558C3.58153 23.7679 3.58153 19.2023 1.12 18.6316L9.73538 22.0558Z" stroke="white" stroke-width="2" stroke-linecap="round" stroke-linejoin="round"/>
</svg>
