<svg width="31" height="31" viewBox="0 0 31 31" fill="none" xmlns="http://www.w3.org/2000/svg">
<path d="M20.6667 10.3333C22.7221 10.3333 24.6933 11.1498 26.1467 12.6032C27.6001 14.0566 28.4167 16.0279 28.4167 18.0833V27.125H23.25V18.0833C23.25 17.3982 22.9778 16.7411 22.4934 16.2566C22.0089 15.7722 21.3518 15.5 20.6667 15.5C19.9815 15.5 19.3244 15.7722 18.84 16.2566C18.3555 16.7411 18.0833 17.3982 18.0833 18.0833V27.125H12.9167V18.0833C12.9167 16.0279 13.7332 14.0566 15.1866 12.6032C16.64 11.1498 18.6112 10.3333 20.6667 10.3333V10.3333Z" stroke="white" stroke-width="2" stroke-linecap="round" stroke-linejoin="round"/>
<path d="M7.75 11.625H2.58334V27.125H7.75V11.625Z" stroke="white" stroke-width="2" stroke-linecap="round" stroke-linejoin="round"/>
<path d="M5.16667 7.74998C6.59341 7.74998 7.75 6.59338 7.75 5.16665C7.75 3.73991 6.59341 2.58331 5.16667 2.58331C3.73993 2.58331 2.58334 3.73991 2.58334 5.16665C2.58334 6.59338 3.73993 7.74998 5.16667 7.74998Z" stroke="white" stroke-width="2" stroke-linecap="round" stroke-linejoin="round"/>
</svg>
