<svg width="178" height="24" viewBox="0 0 178 24" fill="none" xmlns="http://www.w3.org/2000/svg">
<path d="M0.820312 23V20.4365L3.09082 19.9971V4.68945L0.820312 4.25V1.67188H9.94629V4.25L7.36816 4.68945V19.7188H13.3887L13.5938 16.5986H16.8604V23H0.820312ZM25.0195 23.3076C23.3398 23.3076 22.0264 22.7803 21.0791 21.7256C20.1318 20.6611 19.6582 19.0107 19.6582 16.7744V10.168L17.915 9.72852V7.15039H23.9355V16.8037C23.9355 17.9365 24.1309 18.752 24.5215 19.25C24.9219 19.7383 25.5225 19.9824 26.3232 19.9824C27.6025 19.9824 28.5645 19.5039 29.209 18.5469V10.168L27.3193 9.72852V7.15039H33.4863V19.9971L35.3906 20.4365V23H29.7363L29.4434 20.9932C28.3984 22.5361 26.9238 23.3076 25.0195 23.3076ZM44.4434 23.3076C42.9199 23.3076 41.6016 22.9658 40.4883 22.2822C39.3848 21.5986 38.5352 20.6562 37.9395 19.4551C37.3438 18.2539 37.0459 16.8721 37.0459 15.3096V14.8701C37.0459 13.3174 37.3486 11.9404 37.9541 10.7393C38.5596 9.52832 39.4141 8.58105 40.5176 7.89746C41.6211 7.2041 42.9199 6.85742 44.4141 6.85742C45.8301 6.85742 47.0557 7.08203 48.0908 7.53125C49.126 7.9707 49.9658 8.4834 50.6104 9.06934L50.5811 13.6104H47.3584L46.7871 10.7832C46.5527 10.5488 46.2549 10.3584 45.8936 10.2119C45.5322 10.0654 45.166 9.99219 44.7949 9.99219C43.623 9.99219 42.749 10.4268 42.1729 11.2959C41.6064 12.1553 41.3232 13.3467 41.3232 14.8701V15.3096C41.3232 16.9404 41.6309 18.1367 42.2461 18.8984C42.8613 19.6504 43.6035 20.0264 44.4727 20.0264C45.2246 20.0264 45.8252 19.8311 46.2744 19.4404C46.7334 19.04 47.0508 18.4785 47.2266 17.7559H50.874L50.918 17.8438C50.6641 19.5332 50.0391 20.8662 49.043 21.8428C48.0469 22.8193 46.5137 23.3076 44.4434 23.3076ZM58.1396 23.3076C56.5674 23.3076 55.3174 22.8877 54.3896 22.0479C53.4619 21.1982 52.998 20.0459 52.998 18.5908C52.998 17.1064 53.5986 15.8955 54.7998 14.958C56.0107 14.0205 57.7881 13.5518 60.1318 13.5518H62.2266V12.3799C62.2266 11.6182 62.002 11.0029 61.5527 10.5342C61.1133 10.0557 60.4492 9.81641 59.5605 9.81641C59.1016 9.81641 58.6865 9.875 58.3154 9.99219C57.9541 10.0996 57.627 10.2559 57.334 10.4609L56.9971 12.5557H53.9209L53.8623 8.43945C54.6924 7.9707 55.5908 7.58984 56.5576 7.29688C57.5244 7.00391 58.6035 6.85742 59.7949 6.85742C61.8652 6.85742 63.501 7.34082 64.7021 8.30762C65.9033 9.27441 66.5039 10.6465 66.5039 12.4238V18.957C66.5039 19.1719 66.5039 19.3818 66.5039 19.5869C66.5137 19.792 66.5332 19.9971 66.5625 20.2021L68.2178 20.4365V23H62.915C62.8076 22.7266 62.7002 22.4336 62.5928 22.1211C62.4854 21.8086 62.4072 21.4961 62.3584 21.1836C61.8506 21.8281 61.25 22.3457 60.5566 22.7363C59.873 23.1172 59.0674 23.3076 58.1396 23.3076ZM59.2822 20.1436C59.8779 20.1436 60.4395 20.0117 60.9668 19.748C61.5039 19.4746 61.9238 19.1182 62.2266 18.6787V16.1738H60.1172C59.1797 16.1738 58.4668 16.3887 57.9785 16.8184C57.5 17.248 57.2607 17.7656 57.2607 18.3711C57.2607 18.9375 57.4365 19.377 57.7881 19.6895C58.1494 19.9922 58.6475 20.1436 59.2822 20.1436ZM76.5381 23.3076C75.3564 23.3076 74.2529 23.1953 73.2275 22.9707C72.2119 22.7461 71.2354 22.4238 70.2979 22.0039L70.2539 17.5215H73.2275L73.7988 19.8066C74.1309 19.9727 74.4922 20.1045 74.8828 20.2021C75.2832 20.2998 75.7373 20.3486 76.2451 20.3486C77.2021 20.3486 77.876 20.1924 78.2666 19.8799C78.6572 19.5674 78.8525 19.1768 78.8525 18.708C78.8525 18.2686 78.6426 17.8828 78.2227 17.5508C77.8027 17.209 76.9775 16.9111 75.7471 16.6572C73.8623 16.2666 72.4756 15.6611 71.5869 14.8408C70.708 14.0205 70.2686 12.9707 70.2686 11.6914C70.2686 10.8223 70.4883 10.0215 70.9277 9.28906C71.377 8.55664 72.0557 7.97559 72.9639 7.5459C73.8818 7.10645 75.0537 6.88672 76.4795 6.88672C77.6709 6.88672 78.7598 7.00391 79.7461 7.23828C80.7422 7.46289 81.5771 7.76074 82.251 8.13184L82.2949 12.4678H79.3359L78.8818 10.3877C78.3154 9.99707 77.6025 9.80176 76.7432 9.80176C76.001 9.80176 75.4248 9.95801 75.0146 10.2705C74.6143 10.5732 74.4141 10.959 74.4141 11.4277C74.4141 11.8379 74.5898 12.209 74.9414 12.541C75.3027 12.8633 76.0889 13.1611 77.2998 13.4346C79.2627 13.8838 80.6934 14.4844 81.5918 15.2363C82.4902 15.9785 82.9395 17.0234 82.9395 18.3711C82.9395 19.8457 82.4023 21.0371 81.3281 21.9453C80.2637 22.8535 78.667 23.3076 76.5381 23.3076Z" fill="white"/>
<path d="M101.235 23L94.0869 3.7666L92.3877 3.53223V1.67188H99.126V3.53223L97.1777 3.83984L101.953 17.4043L102.451 19.0889H102.539L103.066 17.4043L108.018 3.8252L105.85 3.53223V1.67188H112.573V3.53223L110.859 3.7666L103.711 23H101.235ZM119.062 23.3076C117.412 23.3076 116.157 22.9072 115.298 22.1064C114.438 21.2959 114.009 20.1582 114.009 18.6934C114.009 17.1895 114.624 15.9834 115.854 15.0752C117.085 14.1572 118.794 13.6982 120.981 13.6982H123.809V12.1455C123.809 11.1885 123.516 10.4463 122.93 9.91895C122.354 9.3916 121.538 9.12793 120.483 9.12793C119.819 9.12793 119.243 9.21094 118.755 9.37695C118.267 9.5332 117.822 9.75293 117.422 10.0361L117.114 12.248H114.888V8.61523C116.323 7.44336 118.203 6.85742 120.527 6.85742C122.451 6.85742 123.96 7.31641 125.054 8.23438C126.147 9.15234 126.694 10.4658 126.694 12.1748V19.8066C126.694 20.0117 126.694 20.2119 126.694 20.4072C126.704 20.6025 126.719 20.7979 126.738 20.9932L128.276 21.1543V23H124.131C123.965 22.1992 123.862 21.4717 123.823 20.8174C123.267 21.5303 122.568 22.126 121.729 22.6045C120.898 23.0732 120.01 23.3076 119.062 23.3076ZM119.487 20.8906C120.444 20.8906 121.318 20.6611 122.109 20.2021C122.9 19.7432 123.467 19.1914 123.809 18.5469V15.6758H120.879C119.551 15.6758 118.555 15.9932 117.891 16.6279C117.227 17.2627 116.895 17.9707 116.895 18.752C116.895 20.1777 117.759 20.8906 119.487 20.8906ZM130.518 23V21.1543L132.905 20.7441V9.4209L130.518 9.01074V7.15039H135.483L135.688 9.50879C136.216 8.66895 136.875 8.01953 137.666 7.56055C138.467 7.0918 139.375 6.85742 140.391 6.85742C142.1 6.85742 143.423 7.36035 144.36 8.36621C145.298 9.3623 145.767 10.9053 145.767 12.9951V20.7441L148.154 21.1543V23H140.493V21.1543L142.881 20.7441V13.0537C142.881 11.6572 142.603 10.666 142.046 10.0801C141.499 9.49414 140.659 9.20117 139.526 9.20117C138.696 9.20117 137.959 9.40137 137.314 9.80176C136.68 10.2021 136.172 10.749 135.791 11.4424V20.7441L138.179 21.1543V23H130.518ZM150.205 23V21.1543L152.593 20.7441V9.4209L150.205 9.01074V7.15039H155.171L155.376 9.50879C155.903 8.66895 156.562 8.01953 157.354 7.56055C158.154 7.0918 159.062 6.85742 160.078 6.85742C161.787 6.85742 163.11 7.36035 164.048 8.36621C164.985 9.3623 165.454 10.9053 165.454 12.9951V20.7441L167.842 21.1543V23H160.181V21.1543L162.568 20.7441V13.0537C162.568 11.6572 162.29 10.666 161.733 10.0801C161.187 9.49414 160.347 9.20117 159.214 9.20117C158.384 9.20117 157.646 9.40137 157.002 9.80176C156.367 10.2021 155.859 10.749 155.479 11.4424V20.7441L157.866 21.1543V23H150.205ZM169.79 23V21.1543L172.178 20.7441V9.4209L169.79 9.01074V7.15039H175.063V20.7441L177.451 21.1543V23H169.79ZM172.031 3.23926V0.148438H175.063V3.23926H172.031Z" fill="#CCCCCC"/>
</svg>
